<svg xmlns="http://www.w3.org/2000/svg" version="1.1" xmlns:xlink="http://www.w3.org/1999/xlink" xmlns:svgjs="http://svgjs.dev/svgjs" width="1000" height="1000"><g clip-path="url(#SvgjsClipPath1021)"><rect width="1000" height="1000" fill="#b399c8"></rect><g transform="matrix(9.722222222222221,0,0,9.722222222222221,150,150)"><svg xmlns="http://www.w3.org/2000/svg" version="1.1" xmlns:xlink="http://www.w3.org/1999/xlink" xmlns:svgjs="http://svgjs.dev/svgjs" width="72" height="72"><svg id="emoji" viewBox="0 0 72 72" xmlns="http://www.w3.org/2000/svg">
  <g id="color">
    <rect x="12" y="12" width="48" height="47.83" fill="#b399c8"></rect>
  </g>
  <g id="line">
    <line x1="36" x2="36" y1="50.15" y2="21.85" fill="none" stroke="#000" stroke-linecap="round" stroke-linejoin="round" stroke-width="3"></line>
    <line x1="30.81" x2="41.19" y1="50.26" y2="50.26" fill="none" stroke="#000" stroke-linecap="round" stroke-linejoin="round" stroke-width="3"></line>
    <rect x="12" y="12" width="48" height="48" fill="none" stroke="#000" stroke-linecap="round" stroke-linejoin="round" stroke-width="2"></rect>
    <path fill="none" stroke="#000" stroke-linecap="round" stroke-linejoin="round" stroke-width="2" d="m40.64 21.34a4.635 4.618 0 0 1-2.318 4 4.635 4.618 0 0 1-4.635-1e-6 4.635 4.618 0 0 1-2.318-4"></path>
    <path fill="none" stroke="#000" stroke-linecap="round" stroke-linejoin="round" stroke-width="2" d="m44.87 21.34a8.871 8.858 0 0 1-4.435 7.671 8.871 8.858 0 0 1-8.871 0 8.871 8.858 0 0 1-4.435-7.671"></path>
    <path fill="none" stroke="#000" stroke-linecap="round" stroke-linejoin="round" stroke-width="2" d="m49.11 21.34a13.11 13.09 0 0 1-6.552 11.34 13.11 13.09 0 0 1-13.11-2e-6 13.11 13.09 0 0 1-6.552-11.34"></path>
    <path fill="none" stroke="#000" stroke-linecap="round" stroke-linejoin="round" stroke-width="2" d="m53.34 21.34a17.34 17.34 0 0 1-8.67 15.02 17.34 17.34 0 0 1-17.34-1e-6 17.34 17.34 0 0 1-8.67-15.02"></path>
  </g>
</svg></svg></g></g><defs><clipPath id="SvgjsClipPath1021"><rect width="1000" height="1000" x="0" y="0" rx="350" ry="350"></rect></clipPath></defs></svg>